# xmcd
#
# Track frame offsets:
# 150
# 16470
# 29120
# 43750
# 63310
# 79277
# 91722
# 100632
# 119515
# 136845
# 150112
# 159957
# 178570
# 190212
#
# Disc length: 2769 seconds
#
#
# Revision: 3
# Processed by: cddbd v1.5.1PL0 Copyright (c) Steve Scherf et al.
# Submitted via: FreeRIP 2.70 
#
DISCID=a70acf0e
DTITLE=Ray Charles - Ray Charles
DYEAR=2004
DGENRE=SOUL
TTITLE0=Georgia on my Mind
TTITLE1=Unchain My Heart
TTITLE2=You Don t Know Me
TTITLE3=That Lucky Old Sun
TTITLE4=Your Cheating Heart
TTITLE5=Yesterday
TTITLE6=Hit The Road Jack
TTITLE7=I Can t Stop Loving You
TTITLE8=Ruby
TTITLE9=Eleanor Rigby
TTITLE10=Hey Good Lookin
TTITLE11=(Somewhere) Over The Rainbow
TTITLE12=Dont t Set Me Free
TTITLE13=You ll Never Walk Alone
EXTD=
EXTT0=(Gorel/H.Carmichael)
EXTT1=R. Sharpe/T. Powell
EXTT2=C. Walker/E. Arnold
EXTT3=R. Smith/H. Gillespie
EXTT4=
EXTT5=
EXTT6=
EXTT7=
EXTT8=
EXTT9=
EXTT10=
EXTT11=
EXTT12=
EXTT13=
PLAYORDER=
